<svg width="32" height="32" viewBox="0 0 32 32" fill="none" xmlns="http://www.w3.org/2000/svg">
<path d="M22.6133 8.22668C25.28 10.08 27.12 13.0267 27.4933 16.4267" stroke="white" stroke-width="1.4" stroke-linecap="round" stroke-linejoin="round"/>
<path d="M4.65332 16.4933C4.99999 13.1067 6.81332 10.16 9.45332 8.29333" stroke="white" stroke-width="1.4" stroke-linecap="round" stroke-linejoin="round"/>
<path d="M10.92 27.92C12.4666 28.7066 14.2267 29.1466 16.08 29.1466C17.8667 29.1466 19.5466 28.7466 21.0533 28.0133" stroke="white" stroke-width="1.4" stroke-linecap="round" stroke-linejoin="round"/>
<path d="M16.08 10.2667C18.1272 10.2667 19.7867 8.60713 19.7867 6.56C19.7867 4.51286 18.1272 2.85333 16.08 2.85333C14.0329 2.85333 12.3734 4.51286 12.3734 6.56C12.3734 8.60713 14.0329 10.2667 16.08 10.2667Z" stroke="white" stroke-width="1.4" stroke-linecap="round" stroke-linejoin="round"/>
<path d="M6.44 26.56C8.48714 26.56 10.1467 24.9005 10.1467 22.8533C10.1467 20.8062 8.48714 19.1467 6.44 19.1467C4.39287 19.1467 2.73334 20.8062 2.73334 22.8533C2.73334 24.9005 4.39287 26.56 6.44 26.56Z" stroke="white" stroke-width="1.4" stroke-linecap="round" stroke-linejoin="round"/>
<path d="M25.56 26.56C27.6071 26.56 29.2667 24.9005 29.2667 22.8533C29.2667 20.8062 27.6071 19.1467 25.56 19.1467C23.5129 19.1467 21.8533 20.8062 21.8533 22.8533C21.8533 24.9005 23.5129 26.56 25.56 26.56Z" stroke="white" stroke-width="1.4" stroke-linecap="round" stroke-linejoin="round"/>
</svg>
